<?xml version="1.0" encoding="utf-8"?>
<!-- Generator: Adobe Illustrator 20.1.0, SVG Export Plug-In . SVG Version: 6.00 Build 0)  -->
<svg version="1.1" id="レイヤー_1" xmlns="http://www.w3.org/2000/svg" xmlns:xlink="http://www.w3.org/1999/xlink" x="0px"
	 y="0px" viewBox="0 0 400 40" style="enable-background:new 0 0 400 40;" xml:space="preserve">
<style type="text/css">
	.st0{fill:#231815;}
	.st1{fill:#DA3915;}
	.st2{fill:#222222;}
</style>
<g>
	<g>
		<g>
			<path d="M79.7,7.6c0,1.8,0.1,1.9,0.1,2.4c0,0.6,0,0.7-0.3,0.9c-0.2,0.2-0.3,0.2-0.6,0.2c0-0.2-0.1-0.5-0.6-0.9v0
				c0.2,0,0.4,0,0.6,0c0.2,0,0.3,0,0.4-0.1c0.1-0.1,0.1-0.1,0.1-0.7c0-0.3,0-0.8,0-1.5c-0.1,0.1-0.6,0.5-0.7,0.5
				c0,0.2,0,0.3-0.2,0.3c0,0-0.1,0-0.1-0.1l-0.5-0.7c0.3,0,0.3,0,0.4-0.1c0.1,0,0.6-0.2,1.1-0.5l0-1.8c-0.2,0-0.7,0-1,0.1l-0.2-0.3
				c0.6,0.1,1.2,0.1,1.2,0.1c0-1,0-1.5-0.2-2l0.9,0.3c0.1,0,0.1,0.1,0.1,0.1c0,0.1,0,0.1-0.3,0.3v1.4h0.3l0.2-0.3
				c0,0,0.1-0.1,0.1-0.1c0,0,0.1,0,0.2,0.1l0.3,0.3c0,0,0.1,0.1,0.1,0.1c0,0.1-0.1,0.1-0.1,0.1h-1l0,1.5c0.1-0.1,1.1-0.6,1.2-0.7
				l0,0C80.5,7,80.1,7.3,79.7,7.6z M84.7,11.2c-0.7-0.3-1.4-0.8-2-1.4c-0.5,0.5-1.2,1.1-2.6,1.4l0-0.1c0.9-0.4,1.6-1,2.3-1.8
				c-0.3-0.5-0.6-1.3-0.7-2.2c-0.3,0-0.4,0-0.6,0.1l-0.2-0.3c0.6,0.1,1.1,0.1,1.2,0.1h0.2V5.3h-0.5c-0.2,0-0.6,0-1,0.1L80.7,5
				c0.6,0.1,1.1,0.1,1.3,0.1h0.4c0-0.4,0-1.1-0.1-1.2c0-0.1-0.1-0.4-0.1-0.5l0.9,0.3c0.1,0,0.1,0,0.1,0.1C83.2,3.9,83,4,82.9,4v1H84
				l0.3-0.5c0,0,0.1-0.1,0.1-0.1c0.1,0,0.1,0.1,0.2,0.1L85.2,5c0,0.1,0.1,0.1,0.1,0.1c0,0.1-0.1,0.1-0.1,0.1h-2.2v1.6h0.7l0.2-0.3
				c0,0,0.1-0.1,0.1-0.1c0.1,0,0.1,0,0.2,0.1L84.6,7c0,0,0.1,0.1,0.1,0.1c0,0.1-0.2,0.2-0.4,0.3c-0.4,0.8-0.7,1.4-1.2,2
				c0.4,0.4,1.2,0.9,2.4,1v0.1C85.1,10.6,85,10.7,84.7,11.2z M81.8,7.1c0.1,0.7,0.4,1.3,0.9,1.8c0.6-0.8,0.8-1.4,1-1.8H81.8z"/>
			<path d="M88,8.7c1.1-1.3,1.7-2.7,1.8-3.3l0.7,0.5c0,0,0,0.1,0,0.1c0,0.1-0.1,0.2-0.3,0.1c-0.2,0.3-0.2,0.4-0.3,0.5l0.1,0.1
				c0,0,0.1,0,0.1,0.1c0,0.1-0.1,0.2-0.2,0.3c0,0.6,0,3.7,0,3.7c0,0.2-0.2,0.3-0.4,0.3c0,0-0.2,0-0.2-0.2c0-0.1,0-0.6,0-0.8
				c0-0.7,0.1-2.1,0-2.8C89.1,7.8,88.6,8.4,88,8.7L88,8.7z M88.2,5.7c0.9-0.8,1.5-1.7,1.7-2.2L90.5,4c0,0,0.1,0.1,0.1,0.1
				c0,0.1-0.1,0.1-0.3,0.1C89.8,4.8,89.1,5.4,88.2,5.7L88.2,5.7z M90.1,10c0.4-1,0.6-2.2,0.6-3.3c0-0.1,0-0.2,0-0.2l0.7,0.2
				c0,0,0.1,0,0.1,0.1c0,0.1-0.2,0.2-0.3,0.2C91,8.4,90.7,9.4,90.1,10L90.1,10z M92.7,5.3l0.2-0.2C93,5,93,5,93.1,5s0.1,0,0.2,0.1
				l0.3,0.2c0,0,0.1,0.1,0.1,0.1c0,0.1-0.1,0.1-0.1,0.1h-1.4c0,1.7,0,1.9,0,3.5c0,0.3,0,1.6,0,1.7c0,0.2-0.3,0.3-0.4,0.3
				c-0.2,0-0.2-0.1-0.2-0.2c0-0.1,0-0.6,0-0.7c0-0.9,0-2,0-2.9V5.5h-0.3c-0.1,0-0.6,0-1,0.1l-0.2-0.3c0.4,0,0.9,0.1,1.4,0.1
				c0-0.4,0-1.5-0.1-1.9l0.8,0.2c0.1,0,0.1,0.1,0.1,0.1c0,0.1-0.1,0.2-0.2,0.2v1.3H92.7z M92.4,6.3c1,1.1,1,2.2,1,2.4
				c0,0.4-0.2,0.5-0.3,0.5c-0.3,0-0.3-0.1-0.3-1.1C92.7,7.7,92.6,7,92.4,6.3L92.4,6.3z M92.4,3.9c0.3,0.1,0.9,0.3,0.9,0.7
				c0,0.2-0.2,0.3-0.3,0.3c-0.2,0-0.2-0.1-0.3-0.5C92.5,4.2,92.4,4,92.4,3.9L92.4,3.9z M93.8,6.5c-0.1,0-0.4,0-0.7,0.1L93,6.3
				c0.5,0,0.9,0,1,0h0.8L95,5.9c0,0,0.1-0.1,0.1-0.1c0,0,0.1,0.1,0.2,0.1l0.4,0.4c0,0,0.1,0.1,0.1,0.1c0,0.1-0.1,0.1-0.1,0.1h-1
				c0,0.9,0,1.8,0,2.7c0,0.2,0,0.9,0,1.1c0,0.4-0.1,0.6-0.4,0.7c-0.2,0.1-0.3,0.2-0.5,0.2c-0.1-0.5-0.5-0.7-0.6-0.8v0
				c0.3,0,0.4,0,0.6,0c0.4,0,0.4,0,0.4-0.3V6.5H93.8z M94.7,4.2l0.2-0.3c0-0.1,0.1-0.1,0.1-0.1c0,0,0.1,0,0.1,0.1l0.3,0.3
				c0,0,0.1,0.1,0.1,0.1c0,0.1-0.1,0.1-0.1,0.1h-1.4c0,0-0.2,0-0.4,0l-0.1-0.3c0.3,0,0.5,0,0.6,0H94.7z"/>
			<path d="M103.9,5c-1,0-1.3,0-1.9,0.3c-0.8,0.5-1.4,1.6-1.4,2.5c0,1.4,1.4,1.8,2.2,1.9c0.1,0,0.5,0.1,0.5,0.5
				c0,0.2-0.2,0.2-0.3,0.2c-0.8,0-2.7-0.6-2.7-2.5c0-0.4,0.1-1.1,0.7-1.9c0.2-0.3,0.4-0.5,1.1-1.1c-0.9,0.1-2.6,0.8-2.9,0.9
				c-0.3,0.2-0.4,0.2-0.5,0.2c-0.2,0-0.6-0.3-0.6-0.8c0-0.2,0.1-0.3,0.1-0.4c0.2,0.3,0.3,0.5,0.6,0.5c0.2,0,0.4,0,1.2-0.2
				c1-0.2,2.5-0.6,3.5-0.9c0.1,0,0.2,0,0.3,0c0.1,0,0.6,0.2,0.6,0.5C104.4,5,104.2,5,103.9,5z M103.7,7.2c-0.1,0-0.2,0-0.4-0.4
				c-0.2-0.3-0.4-0.5-0.8-0.9c0.5,0.1,1.3,0.5,1.3,1C103.9,7,103.9,7.2,103.7,7.2z M104.7,6.8c-0.1,0-0.1,0-0.4-0.4
				c-0.2-0.3-0.6-0.6-0.8-0.8c0.5,0.1,1.4,0.4,1.4,1C104.9,6.8,104.7,6.8,104.7,6.8z"/>
			<path d="M114.1,7l0.3-0.5c0,0,0.1-0.1,0.1-0.1c0,0,0.1,0.1,0.2,0.1l0.5,0.5c0,0,0.1,0.1,0.1,0.1c0,0.1-0.1,0.1-0.1,0.1h-3.1
				c0.7,1.2,2.1,2.3,3.4,2.5v0c-0.3,0.1-0.6,0.3-0.8,0.7c-1.7-0.9-2.5-2.5-2.7-3.2h0c0,0.4,0,1.2,0,1.5c0,0.6,0.1,2,0.1,2.1
				c0,0.3-0.2,0.4-0.4,0.4c-0.2,0-0.3-0.1-0.3-0.3c0-0.2,0-1.1,0.1-1.2c0-0.5,0-1.1,0-1.8c-0.9,1.3-2.2,2.3-3.3,2.6v0
				c1.6-1.1,2.9-2.8,3.1-3.3h-2c-0.1,0-0.6,0-1,0.1L108,6.9c0.6,0.1,1.1,0.1,1.2,0.1h2.1c0-0.5,0-1.2,0-1.7h-1.5c-0.1,0-0.6,0-1,0.1
				L108.7,5c0.4,0,0.8,0.1,1.3,0.1h1.4c0-1.1-0.1-1.3-0.1-1.7l0.8,0.2c0.1,0,0.1,0.1,0.1,0.1c0,0.1-0.2,0.2-0.2,0.2V5h1.3l0.3-0.5
				c0-0.1,0.1-0.1,0.1-0.1c0,0,0.1,0,0.1,0.1l0.5,0.5c0,0,0.1,0.1,0.1,0.1c0,0.1-0.1,0.1-0.1,0.1h-2.3V7H114.1z"/>
			<path d="M122.4,7.5c0.6,0.9,1.9,1.9,3.4,2.1l0,0.1c-0.2,0.1-0.6,0.3-0.8,0.7c-1.4-0.7-2.2-1.9-2.6-2.6c0,0.8,0,1.5,0,1.9
				c0,0.2,0,0.9,0,1.1c0,0.4-0.4,0.4-0.4,0.4c-0.3,0-0.3-0.2-0.3-0.3c0-0.1,0-0.4,0-0.5c0.1-1.2,0.1-1.6,0.1-2.3
				c-0.6,0.9-1.8,2-3.2,2.5l0-0.1c1.3-0.9,2.4-2.1,2.9-3h-1.8c-0.2,0-0.6,0-1,0.1l-0.2-0.3c0.4,0,0.8,0.1,1.3,0.1h2
				c0-0.9,0-1.1,0-2.4h-1.6c-0.2,0-0.6,0-1,0.1l-0.2-0.3c0.4,0,0.8,0.1,1.3,0.1h1.5c0-0.8,0-1-0.2-1.3l0.9,0.2c0,0,0.1,0,0.1,0.1
				c0,0.1-0.1,0.1-0.3,0.2c0,0.1,0,0.6,0,0.7h1.6l0.3-0.4c0-0.1,0.1-0.1,0.1-0.1c0,0,0.1,0,0.2,0.1l0.5,0.4c0,0,0.1,0.1,0.1,0.1
				C125,5,125,5,124.9,5h-2.6c0,1.1,0,1.2,0,2.4h0.5c0.4-0.6,0.9-1.7,0.9-2.1l0.7,0.5c0.1,0.1,0.1,0.1,0.1,0.1
				c0,0.1-0.1,0.1-0.4,0.2c-0.1,0.1-0.1,0.1-0.6,0.7c-0.3,0.4-0.5,0.6-0.6,0.6h1.4l0.4-0.4c0.1-0.1,0.1-0.1,0.1-0.1
				c0,0,0.1,0,0.1,0.1l0.5,0.4c0,0,0.1,0.1,0.1,0.1c0,0.1-0.1,0.1-0.1,0.1H122.4z M119.6,5.4c0.3,0.2,1.2,0.6,1.2,1.3
				c0,0.2-0.1,0.4-0.3,0.4c-0.3,0-0.3-0.3-0.4-0.4C120.2,6.6,120,6,119.6,5.4L119.6,5.4z"/>
			<path d="M134.5,7c-0.8,0.2-1.5,0.5-2.3,0.8c0,0.1,0.1,0.5,0.1,1c0,0.2,0,0.7-0.3,0.7c-0.3,0-0.3-0.5-0.3-0.6c0-0.1,0-0.7,0-0.8
				c-0.5,0.4-1.2,1-1.2,1.4c0,0.6,1.1,0.6,1.3,0.6c0.4,0,0.9-0.1,1.2-0.1c0.2,0,0.2,0,0.3,0c0.3,0,0.5,0.2,0.5,0.4
				c0,0.2-0.1,0.2-0.3,0.3c-0.1,0-0.9,0.1-1.2,0.1c-0.4,0-2.2,0-2.2-1.1c0-0.8,1-1.6,1.5-1.9c-0.1-0.5-0.2-0.9-0.7-0.9
				c-0.5,0-0.9,0.5-1,0.7c-0.4,0.6-0.4,0.6-0.5,0.6c-0.2,0-0.2-0.1-0.2-0.4c0-0.3,0.1-0.4,0.2-0.5c0.6-0.5,1-1.2,1.4-1.9
				c-0.2,0-0.5,0.1-0.7,0.1c-0.6,0-0.8-0.3-0.8-0.8c0.3,0.2,0.5,0.3,0.8,0.3c0.3,0,0.8-0.1,0.9-0.1c0.1-0.2,0.4-0.8,0.4-1
				c0-0.1-0.2-0.3-0.6-0.4c0.1-0.1,0.2-0.2,0.5-0.2c0.4,0,0.7,0.3,0.7,0.5c0,0.1-0.1,0.2-0.1,0.3c-0.2,0.2-0.2,0.2-0.4,0.6
				c0.2-0.1,1-0.4,1.1-0.4c0.2,0,0.4,0.1,0.4,0.3c0,0.1-0.1,0.2-0.2,0.2c-0.4,0.2-1.3,0.3-1.7,0.4c-0.7,1.1-0.8,1.2-0.9,1.4
				c0.2-0.1,0.4-0.2,0.8-0.2c0.7,0,0.9,0.5,1,0.8c0.6-0.3,1.3-0.7,1.6-0.9c0.1-0.1,0.2-0.1,0.2-0.2c0-0.1-0.1-0.2-0.3-0.3
				c0.1,0,0.1,0,0.2,0c0.3,0,0.9,0.2,0.9,0.7C134.7,7,134.6,7,134.5,7z"/>
			<path d="M140.3,5.9l0.2-0.5c0.1-0.1,0.1-0.1,0.1-0.1c0,0,0.1,0,0.1,0l0.6,0.2c0.1,0,0.1,0.1,0.1,0.1c0,0.1,0,0.1-0.1,0.1
				l-1.9,0.6c0,0.3,0,2,0,2.1c0,0.1,0.1,0.1,0.6,0.1c0.3,0,0.6-0.1,0.8-1.2h0.1c0,0.1,0.1,0.7,0.1,0.9c0,0.1,0.1,0.1,0.1,0.2
				c0,0,0,0.1,0,0.1c0,0.1-0.1,0.3-0.3,0.4c-0.2,0.1-0.5,0.1-0.9,0.1c-1.1,0-1.1-0.2-1.1-0.7c0-0.3,0-1.7,0-1.9
				c-0.3,0.1-0.6,0.2-1,0.4l-0.3-0.3c0.5-0.1,0.8-0.2,1.2-0.4c0-1,0-2,0-2.2c0-0.2,0-0.5-0.1-0.6l0.8,0.3c0,0,0.1,0.1,0.1,0.1
				c0,0.1-0.1,0.2-0.2,0.2c0,0.3,0,1.7,0,2L140.3,5.9z M144,4.4l0.3-0.3c0-0.1,0.1-0.1,0.1-0.1c0,0,0.1,0.1,0.1,0.1l0.4,0.3
				c0,0,0.1,0.1,0.1,0.2c0,0.1-0.1,0.1-0.3,0.3c0,0.6,0,2.4-0.1,3.5c-0.2,1.9-0.6,2.5-1.9,2.6c0-0.3-0.1-0.6-0.7-1l0-0.1
				c0.2,0.1,0.5,0.2,1,0.2c0.3,0,0.6-0.1,0.8-0.6c0.3-0.9,0.3-1.8,0.3-4.9h-1.5c0,1.4,0,3-0.5,4.2c-0.4,0.9-1.4,2-3.2,2.3l0-0.1
				c1.7-0.7,2.5-1.6,2.8-2.6c0.4-1.2,0.4-3.3,0.4-3.9h-0.5c-0.2,0-0.6,0-1,0.1l-0.2-0.3c0.7,0.1,1.2,0.1,1.3,0.1H144z"/>
			<path d="M152.1,10.5c-0.3,0.3-0.8,0.7-1.2,0.8l0,0c1.4-1.1,1.8-2.7,1.8-4.2c0-0.6,0-2.1-0.6-2.1c-0.3,0-0.6,0.4-0.6,0.5
				c-0.3,0.5-0.9,1.8-0.9,2.8c0,0.1,0.1,0.5,0.1,0.6c0,0.1,0,0.2-0.2,0.2c-0.5,0-0.6-1-0.6-1.8c0-0.6,0.2-1.8,0.3-2.5
				c0,0,0-0.2,0-0.3c0-0.5-0.3-0.7-0.5-0.8c0.1,0,0.2-0.1,0.4-0.1c0.4,0,0.7,0.3,0.7,0.6c0,0.1,0,0.2-0.1,0.4
				c-0.3,0.6-0.5,1.5-0.5,2.3c0,0.1,0,0.6,0.1,0.6c0,0,0.1,0,0.1-0.1c0.2-0.7,0.9-2.9,1.8-2.9c1,0,1.1,1.7,1.1,2.5
				C153.4,8.6,153,9.6,152.1,10.5z"/>
			<path d="M160.9,5.4h-1.2c0,0.3,0,1.4,0,1.6c0.2-0.1,1.1-0.4,1.3-0.5l0,0.1c-0.2,0.1-1.1,0.7-1.3,0.8c0,0.5,0,2.5,0,2.7
				c0,0.4,0,0.8-0.8,1c0-0.2-0.1-0.6-0.9-0.9v-0.1c0.1,0,0.6,0,0.7,0c0.2,0,0.4,0,0.4-0.4V7.7c-0.5,0.3-0.8,0.4-1,0.5
				c0,0.2-0.1,0.2-0.1,0.2c0,0-0.1,0-0.1-0.1l-0.4-0.8c0.1,0,0.2,0,0.3,0c0.2,0,1.1-0.3,1.4-0.4c0-0.3,0-1.6,0-1.8H159
				c-0.2,0-0.6,0-1,0.1l-0.2-0.3c0.5,0,1,0.1,1.4,0.1c0-0.2,0-1,0-1.1c0-0.3-0.1-0.5-0.2-0.7l0.9,0.3c0.1,0,0.1,0.1,0.1,0.1
				c0,0.1-0.1,0.1-0.2,0.3c0,0.2,0,1,0,1.1h0.4l0.2-0.3c0-0.1,0.1-0.1,0.1-0.1c0,0,0.1,0,0.2,0.1l0.4,0.3c0,0,0.1,0.1,0.1,0.1
				C161.1,5.4,161,5.4,160.9,5.4z M165,4.5h-2.2c-0.2,0.7-0.5,1.5-1,2.4l0.3,0.2h1.7l0.3-0.3c0,0,0.1-0.1,0.1-0.1c0,0,0.1,0,0.1,0.1
				l0.3,0.3c0,0,0.1,0.1,0.1,0.2c0,0.1-0.1,0.1-0.3,0.2c0,0.5,0,1.1,0,1.6c0,0.2,0.1,1.3,0.1,1.5c0,0.3-0.2,0.4-0.4,0.4
				c-0.2,0-0.2-0.2-0.2-0.5h-1.9c0,0.3,0,0.5-0.4,0.5c-0.2,0-0.2-0.1-0.2-0.3c0-0.1,0-0.5,0-0.5c0-0.4,0-0.9,0-1.3
				c0-0.4,0-1.1,0-1.5c-0.2,0.4-0.8,1.4-1.4,1.8l0-0.1c0.9-1.2,1.7-3.2,2-4.7h-0.6c-0.1,0-0.6,0-1,0.1l-0.2-0.3c0.5,0,1,0.1,1.2,0.1
				h2.2l0.3-0.4c0-0.1,0.1-0.1,0.1-0.1c0,0,0.1,0.1,0.1,0.1l0.5,0.4c0,0,0.1,0.1,0.1,0.1C165.1,4.5,165,4.5,165,4.5z M164.1,7.3
				h-1.9v3h1.9V7.3z"/>
			<path d="M169.6,9c-0.1,0.3-0.1,0.4-0.1,0.5c0,0.1,0,0.3,0,0.4c0,0.1-0.1,0.3-0.3,0.3c-0.5,0-0.7-0.7-0.7-1.9c0-0.2,0-0.9,0.1-1.7
				c0.1-0.5,0.2-1.3,0.2-1.5c0-0.4-0.1-0.5-0.2-0.8c0.6,0,0.9,0.7,0.9,0.9c0,0.1,0,0.2-0.1,0.4c-0.4,1.2-0.5,1.6-0.5,2.4
				c0,0.2,0,0.9,0.2,0.9c0,0,0.1-0.1,0.1-0.1c0.1-0.2,0.6-1.5,0.7-1.9l0.1,0C170,7.2,169.7,8.7,169.6,9z M174.9,5.9
				c-0.2,0.2-1.1,0.3-1.5,0.3c0,0.3,0.1,1.5,0.1,1.7c0,1.3-0.4,2.5-2,3.3l0-0.1c1.3-0.9,1.5-2,1.5-4.1c0-0.4,0-0.6,0-0.8
				c-0.1,0-0.8,0.1-0.9,0.1c-0.4,0-0.9-0.1-1.2-0.5c0.2,0,0.3,0.1,0.7,0.1c0,0,0.5,0,1.3-0.1c-0.1-1.4-0.1-1.7-0.8-1.8
				c0.1-0.1,0.3-0.3,0.5-0.3c0.1,0,0.8,0.1,0.8,0.6c0,0.1,0,0.3,0,0.4c0,0.2,0,0.8,0,1.1c0.4-0.1,0.5-0.1,0.9-0.3c0.1,0,0.1,0,0.2,0
				c0.2,0,0.5,0.1,0.5,0.3C175,5.8,174.9,5.9,174.9,5.9z"/>
			<path d="M179,10.9c-0.7,0-1.2-0.6-1.2-1.3c0-0.7,0.5-1.3,1.2-1.3c0.6,0,1.2,0.6,1.2,1.3C180.2,10.4,179.7,10.9,179,10.9z
				 M179,8.7c-0.5,0-0.9,0.5-0.9,1s0.4,1,0.9,1c0.5,0,0.9-0.5,0.9-1C180,9.1,179.5,8.7,179,8.7z"/>
		</g>
		<rect x="185.6" y="7" width="22.4" height="0.3"/>
		<rect x="49.4" y="7" width="22.4" height="0.3"/>
	</g>
	<g>
		<path class="st0" d="M50.6,34.1c0,0.2-0.1,0.3-0.2,0.3h-1.1c-0.2,0-0.2-0.1-0.1-0.3l0.8-0.9c0.1-0.1,0.3-0.1,0.3,0L50.6,34.1z
			 M52.3,35.2l-0.7-2.5c0-0.2-0.2-0.3-0.4-0.3h-0.9c-0.2,0-0.4,0.1-0.6,0.3l-2.2,2.5c-0.1,0.2-0.1,0.3,0.1,0.3h0.1
			c0.2,0,0.4-0.1,0.6-0.3l0.1-0.1c0.1-0.1,0.4-0.3,0.6-0.3h1.6c0.2,0,0.4,0.1,0.4,0.3l0,0.1c0,0.2,0.2,0.3,0.4,0.3h0.8
			C52.3,35.5,52.4,35.3,52.3,35.2z"/>
		<path class="st0" d="M56.2,33.7h-1.1c-0.2,0-0.4,0.1-0.4,0.3l-0.3,1.1c-0.1,0.2-0.2,0.3-0.4,0.3h-0.6c-0.2,0-0.3-0.1-0.2-0.3
			l0.5-1.5c0.1-0.2,0.2-0.3,0.4-0.3h2.4c0.2,0,0.3,0.1,0.3,0.2C56.5,33.6,56.4,33.7,56.2,33.7z"/>
		<path class="st0" d="M59.5,33.7h-0.6c-0.2,0-0.4,0.1-0.4,0.3l-0.2,0.6c-0.1,0.2,0,0.3,0.2,0.3h0.4c0.2,0,0.3,0.1,0.3,0.2
			c0,0.1-0.2,0.2-0.4,0.2H57c-0.2,0-0.3-0.1-0.2-0.3l0.7-2.4c0.1-0.2,0.2-0.3,0.4-0.3h0.6c0.2,0,0.3,0.1,0.2,0.3L58.7,33
			c-0.1,0.2,0,0.3,0.2,0.3h0.6c0.2,0,0.3,0.1,0.3,0.2C59.8,33.6,59.6,33.7,59.5,33.7z"/>
		<path class="st0" d="M63.4,35.5h-3.2c-0.2,0-0.3-0.1-0.3-0.2c0-0.1,0.2-0.2,0.4-0.2h2.2c0.2,0,0.4-0.1,0.4-0.2
			c0-0.1-0.1-0.2-0.3-0.2h-2.2c-0.2,0-0.3-0.1-0.2-0.3l0.2-0.6c0.1-0.2,0.2-0.3,0.4-0.3H64c0.2,0,0.3,0.1,0.3,0.2
			c0,0.1-0.2,0.2-0.4,0.2h-2.2c-0.2,0-0.4,0.1-0.4,0.2c0,0.1,0.1,0.2,0.3,0.2h2.2c0.2,0,0.3,0.1,0.2,0.3l-0.2,0.6
			C63.7,35.3,63.5,35.5,63.4,35.5z"/>
		<path class="st0" d="M70,35.5h-3.2c-0.2,0-0.3-0.1-0.2-0.3l0.5-1.5c0-0.2,0.2-0.3,0.4-0.3h3.2c0.2,0,0.3,0.1,0.3,0.2
			c0,0.1-0.2,0.2-0.4,0.2h-1.9c-0.2,0-0.4,0.1-0.4,0.3L68,34.7c-0.1,0.2,0,0.3,0.2,0.3h1.9c0.2,0,0.3,0.1,0.3,0.2
			C70.3,35.4,70.2,35.5,70,35.5z"/>
		<path class="st0" d="M74.1,34.7c-0.1,0.2-0.2,0.3-0.4,0.3h-0.9c-0.2,0-0.3-0.1-0.2-0.3l0.2-0.6c0.1-0.2,0.2-0.3,0.4-0.3h0.9
			c0.2,0,0.3,0.1,0.2,0.3L74.1,34.7z M75.1,35.1l0.5-1.5c0.1-0.2-0.1-0.3-0.2-0.3h-3.2c-0.2,0-0.4,0.1-0.4,0.3l-0.5,1.5
			c-0.1,0.2,0,0.3,0.2,0.3h3.2C74.8,35.5,75,35.3,75.1,35.1z"/>
		<path class="st0" d="M76.7,35.5h-0.6c-0.2,0-0.3-0.1-0.2-0.3l0.8-2.5c0.1-0.2,0.2-0.3,0.4-0.3h0.6c0.2,0,0.3,0.1,0.2,0.3l-0.8,2.5
			C77.1,35.3,76.9,35.5,76.7,35.5z"/>
		<path class="st0" d="M78.8,35.5h-0.6c-0.2,0-0.3-0.1-0.2-0.3l0.8-2.5c0.1-0.2,0.2-0.3,0.4-0.3h0.6c0.2,0,0.3,0.1,0.2,0.3l-0.8,2.5
			C79.2,35.3,79,35.5,78.8,35.5z"/>
		<path class="st0" d="M83.2,34c0,0.1-0.2,0.2-0.4,0.2h-0.9c-0.2,0-0.3-0.1-0.3-0.2c0-0.1,0.2-0.2,0.4-0.2h0.9
			C83.1,33.7,83.2,33.8,83.2,34z M83.9,35.2c0-0.1-0.1-0.2-0.3-0.2h-1.9c-0.2,0-0.3-0.1-0.3-0.2c0-0.1,0.2-0.2,0.4-0.2h1.9
			c0.2,0,0.4-0.1,0.4-0.3l0.2-0.6c0.1-0.2,0-0.3-0.2-0.3h-3.2c-0.2,0-0.4,0.1-0.4,0.3L80,35.1c-0.1,0.2,0,0.3,0.2,0.3h3.2
			C83.6,35.5,83.8,35.4,83.9,35.2z"/>
		<path class="st0" d="M87.4,34.7C87.3,34.9,87.1,35,87,35h-0.9c-0.2,0-0.3-0.1-0.2-0.3l0.2-0.6c0.1-0.2,0.2-0.3,0.4-0.3h0.9
			c0.2,0,0.3,0.1,0.2,0.3L87.4,34.7z M88.3,36l0.7-2.4c0.1-0.2-0.1-0.3-0.2-0.3h-3.2c-0.2,0-0.4,0.1-0.4,0.3l-0.5,1.5
			c-0.1,0.2,0,0.3,0.2,0.3h1.9c0.2,0,0.3,0.1,0.3,0.2c0,0.1-0.2,0.2-0.4,0.2h-1.9c-0.2,0-0.4,0.1-0.4,0.2c0,0.1,0.1,0.2,0.3,0.2h3.2
			C88,36.3,88.2,36.2,88.3,36z"/>
		<path class="st0" d="M92.5,34c0,0.1-0.2,0.2-0.4,0.2h-0.9c-0.2,0-0.3-0.1-0.3-0.2c0-0.1,0.2-0.2,0.4-0.2h0.9
			C92.4,33.7,92.5,33.8,92.5,34z M93.2,35.2c0-0.1-0.1-0.2-0.3-0.2H91c-0.2,0-0.3-0.1-0.3-0.2c0-0.1,0.2-0.2,0.4-0.2H93
			c0.2,0,0.4-0.1,0.4-0.3l0.2-0.6c0.1-0.2-0.1-0.3-0.2-0.3h-3.2c-0.2,0-0.4,0.1-0.4,0.3l-0.5,1.5c-0.1,0.2,0,0.3,0.2,0.3h3.2
			C92.9,35.5,93.1,35.4,93.2,35.2z"/>
		<path class="st0" d="M99.5,34.1c-0.2,0.1-0.3,0.4-0.4,0.6L99,35.1c-0.1,0.2-0.2,0.3-0.4,0.3h-0.6c-0.2,0-0.3-0.1-0.2-0.3l0.1-0.4
			c0.1-0.2,0-0.4,0-0.6l-0.8-1.4c-0.1-0.1,0-0.2,0.2-0.2h0.8c0.2,0,0.4,0.1,0.5,0.2l0.5,0.9c0.1,0.1,0.3,0.1,0.4,0l1.1-0.9
			c0.2-0.1,0.4-0.2,0.6-0.2h0.2c0.2,0,0.2,0.1,0,0.2L99.5,34.1z"/>
		<path class="st0" d="M104.7,34.7c-0.1,0.2-0.3,0.3-0.4,0.3H103c-0.2,0-0.3-0.1-0.2-0.3l0.5-1.5c0.1-0.2,0.3-0.3,0.4-0.3h1.3
			c0.2,0,0.3,0.1,0.2,0.3L104.7,34.7z M105.7,35.1l0.7-2.4c0.1-0.2,0-0.3-0.2-0.3h-3.7c-0.2,0-0.4,0.1-0.4,0.3l-0.7,2.4
			c-0.1,0.2,0,0.3,0.2,0.3h3.7C105.4,35.5,105.6,35.3,105.7,35.1z"/>
		<path class="st0" d="M110.8,35.5h-0.9c-0.2,0-0.4-0.1-0.5-0.2l-0.7-0.8c-0.1-0.1-0.3-0.1-0.5,0c-0.2,0.1-0.3,0.3-0.4,0.5l-0.1,0.2
			c-0.1,0.2-0.2,0.3-0.4,0.3h-0.6c-0.2,0-0.3-0.1-0.2-0.3l0.7-2.4c0.1-0.2,0.2-0.3,0.4-0.3h0.6c0.2,0,0.3,0.1,0.2,0.3l-0.2,0.7
			c-0.1,0.2,0,0.2,0.2,0.1l1.8-1c0.2-0.1,0.5-0.2,0.6-0.2h0.4c0.2,0,0.2,0.1,0,0.2l-1.5,0.9c-0.2,0.1-0.2,0.3-0.1,0.4l1.2,1.4
			C111,35.4,110.9,35.5,110.8,35.5z"/>
		<path class="st0" d="M115.1,34.7c-0.1,0.2-0.2,0.3-0.4,0.3h-1.3c-0.2,0-0.3-0.1-0.2-0.3l0.5-1.5c0.1-0.2,0.2-0.3,0.4-0.3h1.3
			c0.2,0,0.3,0.1,0.2,0.3L115.1,34.7z M116,35.1l0.7-2.4c0.1-0.2,0-0.3-0.2-0.3h-3.7c-0.2,0-0.4,0.1-0.4,0.3l-0.7,2.4
			c-0.1,0.2,0,0.3,0.2,0.3h3.7C115.8,35.5,116,35.3,116,35.1z"/>
		<path class="st0" d="M120.7,35.5h-0.4c-0.2,0-0.3-0.1-0.2-0.3l0.2-0.5c0.1-0.2,0-0.3-0.2-0.3h-1.3c-0.2,0-0.4,0.1-0.4,0.3
			l-0.2,0.5c-0.1,0.2-0.2,0.3-0.4,0.3h-0.6c-0.2,0-0.3-0.1-0.2-0.3l0.7-2.4c0.1-0.2,0.2-0.3,0.4-0.3h0.6c0.2,0,0.3,0.1,0.2,0.3
			l-0.2,0.5c-0.1,0.2,0,0.3,0.2,0.3h1.3c0.2,0,0.4-0.1,0.4-0.3l0.2-0.5c0.1-0.2,0.2-0.3,0.4-0.3h0.4c0.2,0,0.3,0.1,0.2,0.3l-0.7,2.4
			C121.1,35.3,120.9,35.5,120.7,35.5z"/>
		<path class="st0" d="M125.2,34.1c0,0.2-0.1,0.3-0.2,0.3h-1.1c-0.2,0-0.2-0.1-0.1-0.3l0.8-0.9c0.1-0.1,0.3-0.1,0.3,0L125.2,34.1z
			 M126.9,35.2l-0.7-2.5c0-0.2-0.2-0.3-0.4-0.3h-0.9c-0.2,0-0.4,0.1-0.6,0.3l-2.2,2.5c-0.1,0.2-0.1,0.3,0.1,0.3h0.1
			c0.2,0,0.4-0.1,0.6-0.3l0.1-0.1c0.1-0.1,0.4-0.3,0.6-0.3h1.6c0.2,0,0.4,0.1,0.4,0.3l0,0.1c0,0.2,0.2,0.3,0.4,0.3h0.7
			C126.8,35.5,127,35.3,126.9,35.2z"/>
		<path class="st0" d="M132.1,35.5h-0.5c-0.2,0-0.3-0.1-0.2-0.3l0.4-1.4c0.1-0.2,0-0.2-0.1,0l-1.1,1.5c-0.1,0.2-0.4,0.3-0.5,0.3
			h-0.4c-0.2,0-0.3-0.1-0.4-0.3l-0.2-1.5c0-0.2-0.1-0.1-0.1,0l-0.4,1.4c-0.1,0.2-0.2,0.3-0.4,0.3c-0.2,0-0.3-0.1-0.2-0.3l0.7-2.4
			c0.1-0.2,0.2-0.3,0.4-0.3h0.9c0.2,0,0.3,0.1,0.4,0.3l0.2,1.5c0,0.2,0.2,0.2,0.3,0l1.2-1.5c0.1-0.2,0.4-0.3,0.6-0.3h0.8
			c0.2,0,0.3,0.1,0.2,0.3l-0.7,2.4C132.4,35.3,132.3,35.5,132.1,35.5z"/>
		<path class="st0" d="M136.5,34.1c0,0.2-0.1,0.3-0.2,0.3h-1.1c-0.2,0-0.2-0.1-0.1-0.3l0.8-0.9c0.1-0.1,0.3-0.1,0.3,0L136.5,34.1z
			 M138.3,35.2l-0.7-2.5c0-0.2-0.2-0.3-0.4-0.3h-0.9c-0.2,0-0.4,0.1-0.6,0.3l-2.2,2.5c-0.1,0.2-0.1,0.3,0.1,0.3h0.1
			c0.2,0,0.4-0.1,0.6-0.3l0.1-0.1c0.1-0.1,0.4-0.3,0.6-0.3h1.6c0.2,0,0.4,0.1,0.4,0.3l0,0.1c0,0.2,0.2,0.3,0.4,0.3h0.8
			C138.2,35.5,138.3,35.3,138.3,35.2z"/>
	</g>
	<g>
		<path class="st0" d="M59,22.7c-0.2,0.2-0.6,0.4-0.9,0.4h-2.6c-0.3,0-0.4-0.2-0.2-0.4l3.4-3.9c0.2-0.2,0.1-0.4-0.2-0.4H49
			c-0.3,0-0.4-0.2-0.3-0.5l0.2-0.4c0.2-0.3,0.5-0.5,0.8-0.5h13.6c0.3,0,0.4,0.2,0.2,0.4L59,22.7z M52.4,26c-0.2,0.3-0.5,0.5-0.8,0.5
			h-2.9c-0.3,0-0.4-0.2-0.3-0.5l3.3-5.4c0.2-0.3,0.5-0.5,0.8-0.5h2.9c0.3,0,0.4,0.2,0.3,0.5L52.4,26z"/>
		<path class="st0" d="M71.1,22.7c-0.2,0.3-0.5,0.5-0.8,0.5h-8.8c-0.3,0-0.4-0.2-0.2-0.4l1.3-1.5c0.2-0.2,0.6-0.4,0.9-0.4h8.3
			c0.3,0,0.4,0.2,0.3,0.5L71.1,22.7z"/>
		<path class="st0" d="M82.4,26c-0.2,0.3-0.5,0.5-0.8,0.5h-2.9c-0.3,0-0.4-0.2-0.3-0.5l5-8.4c0.2-0.3,0.5-0.5,0.8-0.5h2.9
			c0.3,0,0.4,0.2,0.3,0.5L82.4,26z M76.9,21.8c-0.3,0-0.4-0.2-0.3-0.5l2.2-3.7c0.2-0.3,0.5-0.5,0.8-0.5h1.2c0.3,0,0.4,0.2,0.3,0.5
			L79,21.3c-0.2,0.3-0.5,0.5-0.8,0.5H76.9z M73.3,21.8c-0.3,0-0.4-0.2-0.3-0.5l2.2-3.7c0.2-0.3,0.5-0.5,0.8-0.5h1.2
			c0.3,0,0.4,0.2,0.3,0.5l-2.2,3.7c-0.2,0.3-0.5,0.5-0.8,0.5H73.3z"/>
		<path class="st0" d="M96.4,26.4c-0.3,0-0.5-0.2-0.4-0.5l1.8-6c0.1-0.3-0.1-0.5-0.4-0.5h-3c-0.3,0-0.7,0.2-0.8,0.5L90.1,26
			c-0.1,0.3-0.5,0.5-0.8,0.5h-1.6c-0.3,0-0.4-0.2-0.3-0.5l3.5-6.1c0.2-0.3,0-0.5-0.3-0.5h-1.9c-0.3,0-0.4-0.2-0.3-0.5l0.3-0.4
			c0.2-0.3,0.5-0.5,0.8-0.5h1.8c0.3,0,0.7-0.2,0.8-0.5l0.4-0.7c0.2-0.3,0.5-0.5,0.8-0.5H95c0.3,0,0.4,0.2,0.3,0.5l-0.4,0.7
			c-0.2,0.3,0,0.5,0.3,0.5h6.7c0.3,0,0.5,0.2,0.4,0.5l-2.2,7.3c-0.1,0.3-0.4,0.5-0.7,0.5H96.4z"/>
		<path class="st0" d="M103.2,26.4c-0.3,0-0.5-0.2-0.4-0.5l0.2-0.6c0.1-0.3,0.2-0.8,0.3-1.1l2.1-7c0.1-0.3,0.4-0.5,0.7-0.5h2.9
			c0.3,0,0.5,0.2,0.4,0.5l-2,6.6c-0.1,0.3,0.1,0.5,0.4,0.5l7.9-0.8c0.3,0,0.4,0.2,0.3,0.4l-0.5,0.8c-0.2,0.3-0.5,0.5-0.8,0.5
			L103.2,26.4z"/>
		<path class="st0" d="M126.1,26c-0.2,0.3-0.5,0.5-0.8,0.5H123c-0.3,0-0.4-0.2-0.3-0.5l3.5-5.8c0.2-0.3,0.5-0.5,0.8-0.5h2.2
			c0.3,0,0.4,0.2,0.3,0.5L126.1,26z M120.9,23.4c-0.3,0-0.4-0.2-0.3-0.5l1.7-2.7c0.2-0.3,0.5-0.5,0.8-0.5h1.3c0.3,0,0.4,0.2,0.3,0.5
			L123,23c-0.2,0.3-0.5,0.5-0.8,0.5H120.9z M117.6,23.4c-0.3,0-0.4-0.2-0.3-0.5l1.7-2.7c0.2-0.3,0.5-0.5,0.8-0.5h1.2
			c0.3,0,0.4,0.2,0.3,0.5l-1.7,2.7c-0.2,0.3-0.5,0.5-0.8,0.5H117.6z"/>
		<path class="st0" d="M137.5,26.1c-0.2,0.2-0.7,0.4-1,0.4H133c-0.3,0-0.4-0.2-0.1-0.4l9-7.3c0.2-0.2,0.7-0.3,1-0.3h3.6
			c0.3,0,0.4,0.2,0.1,0.3L137.5,26.1z M145.7,17.9c-0.3,0-0.4-0.2-0.1-0.3l0.4-0.3c0.2-0.2,0.7-0.3,1-0.3h1c0.3,0,0.4,0.2,0.1,0.3
			l-0.4,0.3c-0.2,0.2-0.7,0.3-1,0.3H145.7z M143.1,17.9c-0.3,0-0.4-0.2-0.1-0.3l0.4-0.3c0.2-0.2,0.7-0.3,1-0.3h1
			c0.3,0,0.4,0.2,0.1,0.3l-0.4,0.3c-0.2,0.2-0.7,0.3-1,0.3H143.1z M137.1,18.3c-0.1,0.3-0.5,0.5-0.8,0.5H132c-0.3,0-0.4-0.2-0.3-0.5
			l0.4-0.7c0.2-0.3,0.5-0.5,0.8-0.5h4.3c0.3,0,0.4,0.2,0.3,0.5L137.1,18.3z M131,21.8c-0.3,0-0.4-0.2-0.3-0.5l0.4-0.7
			c0.2-0.3,0.5-0.5,0.8-0.5h4.3c0.3,0,0.4,0.2,0.3,0.5l-0.4,0.7c-0.2,0.3-0.5,0.5-0.8,0.5H131z"/>
	</g>
	<g>
		<path class="st1" d="M147.8,26.4c-0.3,0-0.5-0.2-0.4-0.5l0.1-0.3c0.1-0.3,0.4-0.5,0.7-0.5h7.6c0.3,0,0.6-0.2,0.7-0.5l0.5-1.6
			c0.1-0.3-0.1-0.5-0.4-0.5h-6.9c-0.3,0-0.5-0.2-0.4-0.5l0.1-0.3c0.1-0.3,0.4-0.5,0.7-0.5h6.9c0.3,0,0.6-0.2,0.7-0.5l0.5-1.6
			c0.1-0.3-0.1-0.5-0.4-0.5h-7.6c-0.3,0-0.5-0.2-0.4-0.5l0.1-0.3c0.1-0.3,0.4-0.5,0.7-0.5h11.6c0.3,0,0.5,0.2,0.4,0.5l-2.6,8.3
			c-0.1,0.3-0.4,0.5-0.7,0.5H147.8z"/>
		<path class="st1" d="M162.2,26.4c-0.3,0-0.5-0.2-0.4-0.5l0.1-0.3c0.1-0.3,0.4-0.5,0.7-0.5h7.6c0.3,0,0.6-0.2,0.7-0.5l1.7-5.6
			c0.1-0.3-0.1-0.5-0.4-0.5h-7.6c-0.3,0-0.5-0.2-0.4-0.5l0.1-0.3c0.1-0.3,0.4-0.5,0.7-0.5h11.6c0.3,0,0.5,0.2,0.4,0.5l-2.6,8.3
			c-0.1,0.3-0.4,0.5-0.7,0.5H162.2z"/>
		<path class="st1" d="M187,26.4c-0.3,0-0.5-0.2-0.5-0.5l0.4-8.3c0-0.3,0.3-0.5,0.6-0.5h3.3c0.3,0,0.5,0.2,0.5,0.5l-0.4,8.3
			c0,0.3-0.3,0.5-0.6,0.5H187z M179.4,26c-0.2,0.3-0.6,0.5-0.9,0.5h-1.9c-0.3,0-0.4-0.2-0.2-0.5l5.6-8.5c0.2-0.3,0.5-0.5,0.9-0.5
			h1.9c0.3,0,0.4,0.2,0.2,0.5L179.4,26z"/>
		<path class="st1" d="M202.6,23.4c-0.2,0.2-0.6,0.4-0.9,0.4h-2.3c-0.3,0-0.5,0.2-0.4,0.5l0.5,1.6c0.1,0.3-0.1,0.5-0.4,0.5h-2.9
			c-0.3,0-0.6-0.2-0.7-0.5l-1.3-4.3c-0.1-0.3,0.1-0.5,0.4-0.5h2.9c0.3,0,0.6,0.2,0.7,0.5l0.3,1.1c0.1,0.3,0.3,0.3,0.5,0.1l3.4-4
			c0.2-0.2,0.1-0.4-0.2-0.4h-8.9c-0.3,0-0.5-0.2-0.4-0.5l0.1-0.3c0.1-0.3,0.4-0.5,0.7-0.5h13.6c0.3,0,0.4,0.2,0.2,0.4L202.6,23.4z"
			/>
	</g>
	<path class="st1" d="M40,14.4c-0.2-2.8-1.1-6.8-3.5-9.4c-2.2-2.3-6.7-2.8-9.8-1.9C17.5,5.5,7.9,19.6,3.2,28.1
		c-2.7,4.9-3.3,8.6,0.5,8.6c3.7,0,5-6.2,16.6-6.8c8.2-0.5,4.8,7.5,12.2,7.5c3.9,0,6.1-4.2,7-8.3C40.5,24.1,40.3,17.9,40,14.4z
		 M32.1,13.9c-0.4,0.8-1.6,2.1-3.1,2.5c-1.8,0.4-3.6,0.5-5.5,0.8c-6.4,1-9.4,2.7-11.1,3.6c-2.1,1.1,2.1-5,3.3-6.6
		c3.4-4.4,6.4-7.2,10.4-8c1.6-0.3,3-0.1,4.5,0.7C32.1,7.6,33.6,10.5,32.1,13.9z"/>
	<path class="st0" d="M150,32.3c0.3-0.3,0.6-0.8,0.7-1l0.5,0.2c-0.2,0.3-0.4,0.5-0.6,0.8h0.8l-0.3,1.3h-0.5l0.2-0.8h-4.1l-0.2,0.8
		H146l0.3-1.3h0.8c0-0.3-0.2-0.7-0.2-0.8l0.5-0.2c0.1,0.3,0.2,0.6,0.2,0.8l-0.3,0.1H150z M148.8,32.3c0-0.2-0.1-0.5-0.2-0.8l0.5-0.2
		c0.1,0.2,0.2,0.6,0.2,0.8L148.8,32.3z M150.2,33.6c-0.5,0.4-1.1,0.7-1.7,0.9l0,0.1h2.4l-0.1,0.4h-2.4l-0.3,1.1
		c-0.1,0.3-0.4,0.4-0.6,0.4h-1.1l0-0.5l0.9,0c0.2,0,0.2-0.1,0.2-0.2l0.2-0.9h-2.5l0.1-0.4h2.5l0.1-0.5h0.3c0.2-0.1,0.7-0.3,1.1-0.6
		h-2.7l0.1-0.4h3.5L150.2,33.6z"/>
	<path class="st0" d="M153.2,34.8c-0.2-0.4-0.2-0.6-0.3-0.9l-0.7,2.8h-0.5l0.7-2.8c-0.5,0.8-0.9,1.2-1.1,1.4l0-0.6
		c0.2-0.2,0.8-0.8,1.3-1.9h-0.8l0.1-0.4h0.8l0.3-1.1h0.5l-0.3,1.1h0.7l-0.1,0.4h-0.7l-0.1,0.3c0.1,0.6,0.3,0.9,0.5,1.2L153.2,34.8z
		 M156.2,31.3L156,32h1.5l-0.1,0.4H154l0.1-0.4h1.4l0.2-0.6H156.2z M152.7,36.3c0.8-0.2,1.3-0.5,1.8-0.8c-0.3-0.6-0.4-1.2-0.4-1.5
		l0.5-0.1c0,0.7,0.2,1.1,0.3,1.3c0.5-0.5,0.8-0.9,1.1-1.3l0.4,0.1c-0.5,0.8-0.9,1.2-1.2,1.5c0.4,0.4,0.8,0.6,1.3,0.8l-0.4,0.5
		c-0.8-0.3-1.1-0.6-1.4-0.9c-0.6,0.5-1.3,0.7-1.9,0.9L152.7,36.3z M156.8,33.9c-0.5-0.4-0.7-0.8-0.8-1.1l0.4-0.2
		c0.3,0.5,0.5,0.7,0.8,0.9L156.8,33.9z M153.6,33.6c0.4-0.2,0.8-0.5,1.3-1l0.3,0.2c-0.4,0.5-1,0.9-1.3,1.1L153.6,33.6z"/>
	<path class="st0" d="M158.8,33.5c-0.2-0.2-0.5-0.5-0.9-0.6l-0.3,0.4c0.4,0.2,0.6,0.4,0.8,0.6L158.8,33.5z M161,34.9
		c0.2,0.4,0.4,0.9,0.4,1c-0.8,0.1-1.2,0.1-2.1,0.1c0.3-0.4,1-1.3,1.3-1.8h2.1l0.1-0.4h-1.7l0.3-1.1h1.5l0.1-0.4h-1.5l0.2-0.9h-0.5
		l-0.2,0.9h-1.4l-0.1,0.4h1.4l-0.3,1.1H159l-0.1,0.4h1.2c-0.3,0.6-1.1,1.5-1.3,1.9c-0.1,0-0.3,0-0.4,0l0,0.5c0.8,0,2.5-0.2,3.3-0.3
		c0.1,0.2,0.1,0.4,0.1,0.5l0.5-0.2c-0.2-0.8-0.4-1.2-0.7-1.8L161,34.9z M159.5,32c-0.3-0.3-0.6-0.5-0.9-0.6l-0.4,0.4
		c0.2,0.1,0.6,0.4,0.8,0.6L159.5,32z M157,36.7c0.6-0.6,1.3-1.5,1.7-2.1l-0.3-0.3c-0.5,0.7-1,1.3-1.6,1.9L157,36.7z"/>
	<path class="st0" d="M167,31.4l-0.2,0.7c-0.1,0.2-0.2,0.8-0.2,1.4c0,1.5,0.7,2.3,1.6,2.7l-0.5,0.5c-0.2-0.1-0.8-0.5-1.2-1.3
		c-0.4-0.8-0.4-1.6-0.4-1.9c-0.3,0.7-0.7,1.3-1.3,1.8c-0.6,0.6-1.3,1-2,1.4l-0.2-0.4c1.1-0.5,2-1.1,2.6-2c0.6-0.9,1-2,1-2.2l0.2-0.7
		H167z"/>
	<path class="st0" d="M172,32.5c-0.1,0.4-0.3,1-0.6,1.4l0.3,0.2c0.1-0.1,0.2-0.3,0.4-0.8c0.2-0.4,0.2-0.7,0.3-0.8L172,32.5z
		 M172.9,31.3l-1.4,5.4h0.5l1.4-5.4H172.9z M175.5,31.3l-0.1,0.4H174l-0.1,0.4h1.5l-0.1,0.4h-1.3l-0.1,0.4h1.3l-0.1,0.4h-1.6
		l-0.1,0.4h3.6l0.1-0.4h-1.6l0.1-0.4h1.3l0.1-0.4h-1.3l0.1-0.4h1.5l0.1-0.4h-1.5l0.1-0.4H175.5z M173.6,33c0-0.3-0.1-0.6-0.1-0.7
		l-0.4,0.1c0,0.1,0.1,0.4,0.1,0.7L173.6,33z M176.6,33.9h-3.1l-0.8,2.8h0.5l0.3-1h2.1l-0.1,0.4c0,0.1,0,0.2-0.2,0.2h-0.6l0,0.4h0.6
		c0.5,0,0.6-0.1,0.7-0.5L176.6,33.9z M176,34.6h-2.1l0.1-0.4h2.2L176,34.6z M175.8,35.3h-2.1l0.1-0.4h2.1L175.8,35.3z"/>
	<path class="st0" d="M178.4,34.1c0-0.2,0-0.5,0-0.8h1.1c-0.1,0.3-0.3,0.6-0.4,0.8H178.4z M182.2,36.3c-0.3-0.3-0.4-0.5-0.6-0.7
		c0.6-0.8,0.9-1.5,1.1-2h-1.9l0.4-1.6h1.3c-0.2,0.8-0.3,0.9-0.6,0.9l-0.6,0l0,0.4h0.6c0.3,0,0.5-0.1,0.5-0.3
		c0.1-0.2,0.4-0.8,0.6-1.5h-2.2l-1.4,5.2h0.4l0.7-2.7h1.4c-0.1,0.2-0.3,0.7-0.7,1.2c-0.1-0.2-0.1-0.5-0.2-1l-0.4,0.1
		c0,0.2,0,0.7,0.3,1.3c-0.3,0.4-0.7,0.6-0.8,0.7l0.2,0.4c0.2-0.1,0.5-0.3,0.8-0.7c0.2,0.4,0.4,0.6,0.5,0.7L182.2,36.3z M179.2,31.3
		l-0.1,0.5h-1l-0.1,0.4h1l-0.2,0.6h-1.1l-0.1,0.4h0.4c0,0.2,0,0.5,0,0.8h-0.5l-0.1,0.4h1.1l-0.2,0.7h-1l-0.1,0.4h1l-0.3,1.1h0.5
		l0.3-1.1h1l0.1-0.4h-1l0.2-0.7h1.1l0.1-0.4h-0.5c0.1-0.2,0.3-0.5,0.4-0.8h0.4l0.1-0.4h-1.1l0.2-0.6h1l0.1-0.4h-1l0.1-0.5H179.2z"/>
	<path class="st0" d="M187.6,32.6c-0.6,1.1-1.4,1.9-1.9,2.3c-0.2-0.3-0.7-1-0.7-2.3H187.6z M188,36.2c-0.4-0.1-1.3-0.3-2-1.1
		c0,0,0,0,0.1,0c0.9-0.7,1.6-1.6,2.1-2.6h0.9l0.1-0.5h-2.4l0.2-0.8h-0.5l-0.2,0.8h-2.4l-0.1,0.5h0.9c0,1.1,0.3,1.9,0.7,2.6
		c-0.5,0.3-0.7,0.4-1.1,0.6c-0.7,0.3-1.2,0.4-1.4,0.4l0.1,0.5c0.6-0.1,1.6-0.4,2.7-1.2c0.5,0.6,1.3,1,2.1,1.2L188,36.2z"/>
	<path class="st0" d="M189.7,36.7h-0.5l0.8-3.1c-0.4,0.4-0.6,0.5-0.8,0.7l-0.1-0.5c0.9-0.7,1.6-1.6,2.1-2.4l0.5,0.1
		c-0.1,0.2-0.4,0.7-0.9,1.4L189.7,36.7z M194.7,32.8c-0.8,0.5-1.9,0.9-2.5,1.1l-0.5,2c-0.1,0.2,0,0.2,0.2,0.2h1.3
		c0.2,0,0.2-0.1,0.3-0.2c0.1-0.1,0.2-0.7,0.3-0.9l0.5,0.1c-0.1,0.4-0.3,0.9-0.4,1.1c-0.2,0.2-0.3,0.3-0.6,0.3h-1.6
		c-0.2,0-0.5,0-0.4-0.5l1.3-4.8h0.5l-0.6,2.1c0.5-0.1,1.4-0.5,2.2-1L194.7,32.8z"/>
	<path class="st0" d="M199.3,32.3c0.3-0.3,0.6-0.8,0.7-1l0.5,0.2c-0.2,0.3-0.4,0.5-0.6,0.8h0.8l-0.3,1.3h-0.5l0.2-0.8H196l-0.2,0.8
		h-0.5l0.3-1.3h0.8c0-0.3-0.2-0.7-0.2-0.8l0.5-0.2c0.1,0.3,0.2,0.6,0.2,0.8l-0.3,0.1H199.3z M198.1,32.3c0-0.2-0.1-0.5-0.2-0.8
		l0.5-0.2c0.1,0.2,0.2,0.6,0.2,0.8L198.1,32.3z M199.5,33.6c-0.5,0.4-1.1,0.7-1.7,0.9l0,0.1h2.4l-0.1,0.4h-2.4l-0.3,1.1
		c-0.1,0.3-0.4,0.4-0.6,0.4h-1.1l0-0.5l0.9,0c0.2,0,0.2-0.1,0.2-0.2l0.2-0.9h-2.5l0.1-0.4h2.5l0.1-0.5h0.3c0.2-0.1,0.7-0.3,1.1-0.6
		H196l0.1-0.4h3.5L199.5,33.6z"/>
	<path class="st0" d="M204.6,34.2h-2.1l0.1-0.4h2.1L204.6,34.2z M204.9,34.5L204.9,34.5l0.3-1h-2.9l-0.3,1h1.1
		c-0.2,0.2-0.8,0.6-1.6,0.8l0.1,0.4c0.8-0.3,1.1-0.5,1.5-0.8l-0.3,1h0.4l0.3-0.9c0.4,0.5,0.9,0.8,1.2,0.9l0.3-0.4
		c-0.2-0.1-0.4-0.1-0.6-0.3c0.3-0.2,0.5-0.3,0.7-0.5L204.9,34.5z M204.7,34.5c-0.2,0.2-0.4,0.4-0.6,0.5c-0.1-0.1-0.3-0.3-0.4-0.5
		H204.7z M206.6,31.5h-4.8l-1.4,5.1h0.5l0.1-0.2h3.9l-0.1,0.2h0.5L206.6,31.5z M205,36h-3.9l1.1-4.1h3.9L205,36z M205.6,32.3h-1.3
		l0.1-0.3h-0.4l-0.1,0.3h-1.3l-0.1,0.3h1.3l-0.1,0.3h-1.5l-0.1,0.3h3.5l0.1-0.3h-1.6l0.1-0.3h1.3L205.6,32.3z"/>
</g>
<g>
	<path class="st2" d="M220.1,4.9h26.9v31.5h-4.8v-2.1h-17.2v2.1h-4.8V4.9z M224.9,17.3h17.2V9h-17.2V17.3z M224.9,21.3v9.1h17.2
		v-9.1H224.9z"/>
	<path class="st2" d="M265.8,13.2h-11.6V9.1h13.8V3.6h4.8v5.5h13.8v4.1h-11.6c2.7,5.2,7.1,10.3,12.9,15.5l-2.5,4.1
		c-1.6-1.4-3.2-3-4.8-4.8v3.4h-7.9v5.7h-4.8v-5.7h-7.9v-3.4c-1.6,1.7-3.2,3.3-4.8,4.8l-2.5-4.1C258.8,23.5,263.1,18.4,265.8,13.2z
		 M268.1,17.4c-2.1,3.5-4.5,6.9-7.3,10h7.3V17.4z M280.2,27.4c-2.8-3.2-5.2-6.5-7.3-10v10H280.2z"/>
	<path class="st2" d="M290.9,14v-3.9h14V14H290.9z M291.9,8.6V5H304v3.6H291.9z M296.2,35.6V37h-4.3V25.9h12.2v9.7H296.2z
		 M292.2,19.2v-3.5H304v3.5H292.2z M292.2,24.3v-3.5H304v3.5H292.2z M296.2,32.2h3.9v-2.8h-3.9V32.2z M305.1,17.5h3.5l0.5-2.9h-2.7
		v-3.6h3.5l0.5-2.3h-5V4.9h18.3v3.9H315l-0.5,2.3h7.6v6.4h2.5v3.8h-19.5V17.5z M310.7,35.1v1.3h-4.6V23.2H323v13.2h-4.7v-1.3H310.7z
		 M318.3,31.4V27h-7.6v4.4H318.3z M313.8,14.7l-0.6,2.9h4.4v-2.9H313.8z"/>
	<path class="st2" d="M342.7,31.3v-3.8h-14.8v-4.1h14.8v-2.6h3.4c1.4-1,2.6-1.9,3.6-2.6h-16.3v-1.4H329V8.3h4.6
		c-0.2-0.5-0.8-1.5-1.8-3.1l4.2-1.6c1,1.6,1.8,3.2,2.5,4.7h3.7c-0.3-0.6-1-1.8-2-3.5l4.2-1.5c1,1.7,1.9,3.3,2.7,5h3.2
		c0.9-1.6,1.8-3.2,2.5-4.8l4.3,1c-0.5,1.1-1.1,2.3-1.9,3.8h4.6v8.5h-4.3v1.4c-2,2-4.1,3.7-6.3,5.2h11.7v4.1h-13.4v4.6
		c0,1.1,0,2-0.1,2.5c-0.1,0.5-0.3,1-0.8,1.3c-0.4,0.3-1,0.6-1.6,0.6c-0.6,0.1-1.7,0.1-3.1,0.1c-0.7,0-2.7-0.1-5.9-0.2l-0.3-4
		c3,0.1,4.8,0.2,5.4,0.2c0.7,0,1.1-0.1,1.2-0.2S342.7,31.9,342.7,31.3z M355.3,12h-21.6v2.1h21.6V12z"/>
	<path class="st2" d="M365,13.2h4.6v-4c-1.3,0.1-2.6,0.3-3.9,0.3l-0.4-3.7c4.4-0.3,8.7-1,12.7-2l1.1,3.5c-1.5,0.5-3.2,0.9-5.1,1.3
		v4.6h4.2v3.9h-3c1.6,2.8,3,5.3,4,7.2l-3.1,2c-0.9-2-1.7-3.5-2.2-4.6v15h-4.4V25.3c-0.9,2.5-2,4.6-3.2,6.3l-2.4-4
		c2.6-3.6,4.3-7.1,5.3-10.5H365V13.2z M391,29.2l-13.9,2.4l-0.4-4.1l14.3-2.5V4h4.7v20.3l3-0.5l0.4,4l-3.4,0.6v8.3H391V29.2z
		 M386,24.6c-2.1-2.3-4.5-4.8-7.3-7.4l3.2-3c2.6,2.4,5,4.8,7.3,7.3L386,24.6z M387.4,15.2c-2-2.3-4.2-4.5-6.4-6.6l3.2-3
		c2.3,2,4.4,4.2,6.5,6.5L387.4,15.2z"/>
</g>
</svg>
